<svg id="SvgjsSvg1012" width="288" height="288" xmlns="http://www.w3.org/2000/svg" version="1.1" xmlns:xlink="http://www.w3.org/1999/xlink" xmlns:svgjs="http://svgjs.com/svgjs"><defs id="SvgjsDefs1013"></defs><g id="SvgjsG1014" transform="matrix(0.916700005531311,0,0,0.916700005531311,11.995199203491211,11.995199203491211)"><svg xmlns="http://www.w3.org/2000/svg" viewBox="0 0 32 32" width="288" height="288"><path d="M22.71,15.11,12.19,9.84a1,1,0,0,0-.45-.1,1,1,0,0,0-.53.15,1,1,0,0,0-.47.85V21.26a1,1,0,0,0,.47.85,1,1,0,0,0,1,.05l10.52-5.27a1,1,0,0,0,0-1.78Z" fill="#ffffff" class="color000 svgShape"></path><path d="M16,1A15,15,0,1,0,31,16,15,15,0,0,0,16,1Zm7.6,17.68L13.08,23.94a2.93,2.93,0,0,1-1.34.32,3,3,0,0,1-1.58-.45,3,3,0,0,1-1.42-2.55V10.74a3,3,0,0,1,4.34-2.68L23.6,13.32a3,3,0,0,1,0,5.36Z" fill="#ffffff" class="color000 svgShape"></path></svg></g></svg>